<svg width="40" height="40" viewBox="0 0 40 40" fill="none" xmlns="http://www.w3.org/2000/svg">
    <path fill-rule="evenodd" clip-rule="evenodd"
          d="M20 40C31.0457 40 40 31.0457 40 20C40 8.9543 31.0457 0 20 0C8.9543 0 0 8.9543 0 20C0 31.0457 8.9543 40 20 40ZM20.2296 10.7704L13.0841 17.9159C11.9331 19.0669 11.9331 20.9331 13.0841 22.0841L20.2296 29.2296C21.3806 30.3806 23.2468 30.3806 24.3978 29.2296C25.5488 28.0786 25.5488 26.2124 24.3978 25.0614L19.3364 20L24.3978 14.9386C25.5488 13.7876 25.5488 11.9214 24.3978 10.7704C23.2468 9.61938 21.3806 9.61938 20.2296 10.7704Z"
          fill="black"/>
</svg>
